<svg id="visual" viewBox="0 0 900 600" width="900" height="600" xmlns="http://www.w3.org/2000/svg" xmlns:xlink="http://www.w3.org/1999/xlink" version="1.1"><g stroke-width="1" stroke-linejoin="bevel"><path d="M428 316L514 386L495 265Z" fill="#f28ebd" stroke="#f28ebd"></path><path d="M514 386L574 295L495 265Z" fill="#f79cbb" stroke="#f79cbb"></path><path d="M567 236L498 215L495 265Z" fill="#9b5ee7" stroke="#9b5ee7"></path><path d="M495 265L395 192L428 316Z" fill="#f79cbb" stroke="#f79cbb"></path><path d="M428 316L423 422L514 386Z" fill="#715df2" stroke="#715df2"></path><path d="M574 295L567 236L495 265Z" fill="#ea80c2" stroke="#ea80c2"></path><path d="M606 508L616 403L514 386Z" fill="#f7caca" stroke="#f7caca"></path><path d="M514 386L616 403L574 295Z" fill="#f79cbb" stroke="#f79cbb"></path><path d="M574 295L692 228L567 236Z" fill="#f9bbc2" stroke="#f9bbc2"></path><path d="M423 422L469 481L514 386Z" fill="#9b5ee7" stroke="#9b5ee7"></path><path d="M498 215L395 192L495 265Z" fill="#715df2" stroke="#715df2"></path><path d="M428 316L319 401L423 422Z" fill="#f9acbd" stroke="#f9acbd"></path><path d="M265 282L319 401L428 316Z" fill="#ea80c2" stroke="#ea80c2"></path><path d="M423 422L427 511L469 481Z" fill="#9b5ee7" stroke="#9b5ee7"></path><path d="M303 481L427 511L423 422Z" fill="#9b5ee7" stroke="#9b5ee7"></path><path d="M469 481L606 508L514 386Z" fill="#715df2" stroke="#715df2"></path><path d="M498 215L413 134L395 192Z" fill="#f9bbc2" stroke="#f9bbc2"></path><path d="M395 192L265 282L428 316Z" fill="#9b5ee7" stroke="#9b5ee7"></path><path d="M533 114L413 134L498 215Z" fill="#f79cbb" stroke="#f79cbb"></path><path d="M616 403L704 321L574 295Z" fill="#ce6ad2" stroke="#ce6ad2"></path><path d="M567 236L533 114L498 215Z" fill="#de74c9" stroke="#de74c9"></path><path d="M531 600L606 508L469 481Z" fill="#f7caca" stroke="#f7caca"></path><path d="M616 403L721 398L704 321Z" fill="#de74c9" stroke="#de74c9"></path><path d="M692 228L533 114L567 236Z" fill="#f79cbb" stroke="#f79cbb"></path><path d="M704 321L692 228L574 295Z" fill="#f7caca" stroke="#f7caca"></path><path d="M413 134L313 182L395 192Z" fill="#f9bbc2" stroke="#f9bbc2"></path><path d="M313 182L265 282L395 192Z" fill="#de74c9" stroke="#de74c9"></path><path d="M679 528L721 398L616 403Z" fill="#f9acbd" stroke="#f9acbd"></path><path d="M704 321L777 329L692 228Z" fill="#9b5ee7" stroke="#9b5ee7"></path><path d="M319 401L303 481L423 422Z" fill="#f9acbd" stroke="#f9acbd"></path><path d="M171 430L303 481L319 401Z" fill="#9b5ee7" stroke="#9b5ee7"></path><path d="M692 228L567 68L533 114Z" fill="#f79cbb" stroke="#f79cbb"></path><path d="M533 114L434 0L413 134Z" fill="#de74c9" stroke="#de74c9"></path><path d="M411 600L531 600L427 511Z" fill="#de74c9" stroke="#de74c9"></path><path d="M427 511L531 600L469 481Z" fill="#de74c9" stroke="#de74c9"></path><path d="M606 508L679 528L616 403Z" fill="#ea80c2" stroke="#ea80c2"></path><path d="M620 600L679 528L606 508Z" fill="#715df2" stroke="#715df2"></path><path d="M171 233L209 309L265 282Z" fill="#f79cbb" stroke="#f79cbb"></path><path d="M265 282L209 309L319 401Z" fill="#f9bbc2" stroke="#f9bbc2"></path><path d="M303 600L411 600L427 511Z" fill="#f28ebd" stroke="#f28ebd"></path><path d="M816 385L777 329L721 398Z" fill="#ce6ad2" stroke="#ce6ad2"></path><path d="M721 398L777 329L704 321Z" fill="#f79cbb" stroke="#f79cbb"></path><path d="M692 228L729 86L567 68Z" fill="#f28ebd" stroke="#f28ebd"></path><path d="M531 600L620 600L606 508Z" fill="#de74c9" stroke="#de74c9"></path><path d="M413 134L316 67L313 182Z" fill="#9b5ee7" stroke="#9b5ee7"></path><path d="M313 182L171 233L265 282Z" fill="#f28ebd" stroke="#f28ebd"></path><path d="M434 0L316 67L413 134Z" fill="#f9bbc2" stroke="#f9bbc2"></path><path d="M798 600L768 479L679 528Z" fill="#f9acbd" stroke="#f9acbd"></path><path d="M679 528L768 479L721 398Z" fill="#715df2" stroke="#715df2"></path><path d="M567 68L496 0L533 114Z" fill="#715df2" stroke="#715df2"></path><path d="M230 600L303 600L303 481Z" fill="#f28ebd" stroke="#f28ebd"></path><path d="M303 481L303 600L427 511Z" fill="#f28ebd" stroke="#f28ebd"></path><path d="M768 479L816 385L721 398Z" fill="#9b5ee7" stroke="#9b5ee7"></path><path d="M496 0L434 0L533 114Z" fill="#f7caca" stroke="#f7caca"></path><path d="M164 107L171 233L313 182Z" fill="#b963dc" stroke="#b963dc"></path><path d="M209 309L171 430L319 401Z" fill="#de74c9" stroke="#de74c9"></path><path d="M106 385L171 430L209 309Z" fill="#f7caca" stroke="#f7caca"></path><path d="M620 600L688 600L679 528Z" fill="#f9acbd" stroke="#f9acbd"></path><path d="M817 228L692 228L777 329Z" fill="#de74c9" stroke="#de74c9"></path><path d="M775 126L729 86L692 228Z" fill="#de74c9" stroke="#de74c9"></path><path d="M567 68L616 0L496 0Z" fill="#ce6ad2" stroke="#ce6ad2"></path><path d="M900 270L817 228L777 329Z" fill="#ea80c2" stroke="#ea80c2"></path><path d="M817 228L775 126L692 228Z" fill="#b963dc" stroke="#b963dc"></path><path d="M675 0L616 0L567 68Z" fill="#f9acbd" stroke="#f9acbd"></path><path d="M434 0L335 0L316 67Z" fill="#f9bbc2" stroke="#f9bbc2"></path><path d="M316 67L164 107L313 182Z" fill="#ce6ad2" stroke="#ce6ad2"></path><path d="M171 430L176 528L303 481Z" fill="#ea80c2" stroke="#ea80c2"></path><path d="M176 528L230 600L303 481Z" fill="#f9acbd" stroke="#f9acbd"></path><path d="M831 0L675 0L729 86Z" fill="#f9acbd" stroke="#f9acbd"></path><path d="M729 86L675 0L567 68Z" fill="#ea80c2" stroke="#ea80c2"></path><path d="M171 430L129 472L176 528Z" fill="#b963dc" stroke="#b963dc"></path><path d="M98 296L106 385L209 309Z" fill="#f28ebd" stroke="#f28ebd"></path><path d="M106 385L129 472L171 430Z" fill="#de74c9" stroke="#de74c9"></path><path d="M176 528L89 600L230 600Z" fill="#f79cbb" stroke="#f79cbb"></path><path d="M103 213L98 296L171 233Z" fill="#ce6ad2" stroke="#ce6ad2"></path><path d="M171 233L98 296L209 309Z" fill="#f9bbc2" stroke="#f9bbc2"></path><path d="M189 0L164 107L316 67Z" fill="#9b5ee7" stroke="#9b5ee7"></path><path d="M164 107L103 213L171 233Z" fill="#ea80c2" stroke="#ea80c2"></path><path d="M688 600L798 600L679 528Z" fill="#f9acbd" stroke="#f9acbd"></path><path d="M900 487L900 415L816 385Z" fill="#715df2" stroke="#715df2"></path><path d="M900 415L900 270L816 385Z" fill="#b963dc" stroke="#b963dc"></path><path d="M816 385L900 270L777 329Z" fill="#f9bbc2" stroke="#f9bbc2"></path><path d="M817 228L900 90L775 126Z" fill="#715df2" stroke="#715df2"></path><path d="M775 126L831 0L729 86Z" fill="#b963dc" stroke="#b963dc"></path><path d="M900 487L816 385L768 479Z" fill="#f7caca" stroke="#f7caca"></path><path d="M900 270L900 234L817 228Z" fill="#f9acbd" stroke="#f9acbd"></path><path d="M116 0L111 109L164 107Z" fill="#f9acbd" stroke="#f9acbd"></path><path d="M164 107L111 109L103 213Z" fill="#f28ebd" stroke="#f28ebd"></path><path d="M798 600L900 487L768 479Z" fill="#f7caca" stroke="#f7caca"></path><path d="M335 0L189 0L316 67Z" fill="#f9acbd" stroke="#f9acbd"></path><path d="M900 90L831 0L775 126Z" fill="#ce6ad2" stroke="#ce6ad2"></path><path d="M900 234L900 90L817 228Z" fill="#ce6ad2" stroke="#ce6ad2"></path><path d="M0 407L129 472L106 385Z" fill="#f7caca" stroke="#f7caca"></path><path d="M0 493L89 600L129 472Z" fill="#f79cbb" stroke="#f79cbb"></path><path d="M129 472L89 600L176 528Z" fill="#715df2" stroke="#715df2"></path><path d="M0 194L0 317L98 296Z" fill="#f9acbd" stroke="#f9acbd"></path><path d="M98 296L0 317L106 385Z" fill="#f28ebd" stroke="#f28ebd"></path><path d="M0 194L98 296L103 213Z" fill="#de74c9" stroke="#de74c9"></path><path d="M798 600L900 600L900 487Z" fill="#9b5ee7" stroke="#9b5ee7"></path><path d="M0 317L0 407L106 385Z" fill="#de74c9" stroke="#de74c9"></path><path d="M189 0L116 0L164 107Z" fill="#f9acbd" stroke="#f9acbd"></path><path d="M0 133L0 194L103 213Z" fill="#f7caca" stroke="#f7caca"></path><path d="M0 133L103 213L111 109Z" fill="#f9acbd" stroke="#f9acbd"></path><path d="M0 407L0 493L129 472Z" fill="#f9acbd" stroke="#f9acbd"></path><path d="M900 90L900 0L831 0Z" fill="#f79cbb" stroke="#f79cbb"></path><path d="M0 0L0 133L111 109Z" fill="#9b5ee7" stroke="#9b5ee7"></path><path d="M0 493L0 600L89 600Z" fill="#f9acbd" stroke="#f9acbd"></path><path d="M116 0L0 0L111 109Z" fill="#f7caca" stroke="#f7caca"></path></g></svg>